<svg xmlns="http://www.w3.org/2000/svg" viewBox="0 0 320 320"><defs><linearGradient id="g" x1="0" y1="0" x2="1" y2="1"><stop stop-color="#EAF1F7"/><stop offset="1" stop-color="#fff"/></linearGradient></defs><rect width="320" height="320" rx="72" fill="url(#g)"/><circle cx="258" cy="58" r="28" fill="#fff" opacity=".55"/><path d="M42 320c10-61 55-91 118-91s108 30 118 91z" fill="#315C8C"/><rect x="143" y="211" width="34" height="38" rx="14" fill="#D99B72"/><ellipse cx="160" cy="151" rx="72" ry="86" fill="#D99B72"/><path d="M82 151c-5-64 27-110 78-110 51 0 83 45 78 110l-18-21-18-34c-35 25-70 29-110 20z" fill="#241A17"/><ellipse cx="132" cy="157" rx="7" ry="9" fill="#3A261D"/><ellipse cx="188" cy="157" rx="7" ry="9" fill="#3A261D"/><circle cx="134" cy="155" r="2" fill="#fff"/><circle cx="190" cy="155" r="2" fill="#fff"/><path d="M151 193c6 5 12 5 18 0" fill="none" stroke="#9B5D55" stroke-width="4" stroke-linecap="round"/><path d="M136 177c9 5 17 5 25 0M184 177c-9 5-17 5-25 0" fill="none" stroke="#A56D5F" stroke-width="3" opacity=".45"/><path d="M111 179h30v13h-30zM179 179h30v13h-30zM141 185h38" fill="none" stroke="#27323A" stroke-width="5"/><path d="M148 239h24v33h-24z" fill="#F8FAFB" stroke="#B8C5CD" stroke-width="3"/></svg>