<?xml version="1.0" encoding="UTF-8"?><svg xmlns="http://www.w3.org/2000/svg" viewBox="0 0 512 512"><defs><linearGradient id="g" x1="0" y1="0" x2="1" y2="1"><stop stop-color="#e8f1ff"/><stop offset="1" stop-color="#ffffff"/></linearGradient></defs><rect width="512" height="512" rx="112" fill="url(#g)"/><circle cx="84" cy="84" r="54" fill="#fff" opacity=".30"/><circle cx="430" cy="430" r="90" fill="#1769aa" opacity=".08"/><circle cx="398" cy="106" r="43" fill="#1769aa" opacity=".95"/><text x="398" y="118" text-anchor="middle" font-family="Arial,sans-serif" font-size="27" font-weight="700" fill="#fff">✚</text><path d="M98 512Q112 350 256 344Q400 350 414 512Z" fill="#ffffff"/><path d="M201 350L256 401L311 350" fill="#ffffff" opacity=".95"/><path d="M256 401V512" stroke="#1769aa" stroke-width="5" opacity=".55"/><ellipse cx="256" cy="218" rx="104" ry="124" fill="#b97858"/><path d="M158 191Q164 104 256 96Q348 104 354 191Q315 145 256 145Q197 145 158 191Z" fill="#263238"/><circle cx="216" cy="218" r="8" fill="#263238"/><circle cx="296" cy="218" r="8" fill="#263238"/><path d="M226 274Q256 292 286 274" fill="none" stroke="#704537" stroke-width="6" stroke-linecap="round"/><path d="M176 347Q150 362 164 402Q181 420 199 393L181 365M336 347Q362 362 348 402Q331 420 313 393L331 365" fill="none" stroke="#1769aa" stroke-width="8" stroke-linecap="round"/><circle cx="178" cy="350" r="10" fill="#fff" stroke="#1769aa" stroke-width="5"/><circle cx="334" cy="350" r="10" fill="#fff" stroke="#1769aa" stroke-width="5"/><circle cx="256" cy="345" r="5" fill="#1769aa"/></svg>